# xmcd
# Track frame offsets:
# 150
# 14532
# 26247
# 41525
# 58462
# 74900
# 93300
# 108600
# 123712
# 137737
# 155162
# 174987
# 188900
# 202495
#
# Disc length: 2918 seconds
# Revision: 3
# Processed by: cddbd v1.5.1PL2 Copyright (c) Steve Scherf et al.
# Submitted via: VisiTrax 2.10.0.248 - For more info visit www.synapsa.com
#
DISCID=e40b640e
DTITLE=Various Artist - Australia's Favourite Line Dances - Vol. 8
DYEAR=1998
DGENRE=
TTITLE0=Led Loader and The Barrels - Jambalaya
TTITLE1=The Woodpackers - Hillbilly Rock Hillbilly Roll
TTITLE2=Sammy Kershaw - Third Rate Romance
TTITLE3=Billy Dean - That Girl's Been Spyin' On Me
TTITLE4=Joe Diffe - This Is Your Brain
TTITLE5=Newton - Sometimes When We Tough
TTITLE6=Steps - 5,6,7,8 (radio edit)
TTITLE7=Twister Alley - Dance
TTITLE8=K.T. Oslin - Younger Men
TTITLE9=Ty Herndon - Living In A Moment
TTITLE10=Dolly Parton - Peace Train(holy roller radio edit)
TTITLE11=The Kinleys - Love Rules
TTITLE12=Beccy Cole - Wild Ones
TTITLE13=Rednex - Wild and Free
EXTD=
EXTT0=
EXTT1=
EXTT2=
EXTT3=
EXTT4=
EXTT5=
EXTT6=
EXTT7=
EXTT8=
EXTT9=
EXTT10=
EXTT11=
EXTT12=
EXTT13=
PLAYORDER=
